<?xml version="1.0" encoding="utf-8"?>
<!-- Generator: Adobe Illustrator 16.0.4, SVG Export Plug-In . SVG Version: 6.00 Build 0)  -->
<!DOCTYPE svg PUBLIC "-//W3C//DTD SVG 1.1//EN" "http://www.w3.org/Graphics/SVG/1.1/DTD/svg11.dtd">
<svg version="1.1" id="Layer_1" xmlns="http://www.w3.org/2000/svg" xmlns:xlink="http://www.w3.org/1999/xlink" x="0px" y="0px"
	 width="667px" height="182px" viewBox="0 0 667 182" enable-background="new 0 0 667 182" xml:space="preserve">
<g>
	<g>
		<g>
			<line fill="#CBDD58" x1="135.165" y1="44.532" x2="87.956" y2="88.294"/>
			<path fill="#CBDD58" d="M87.958,98.294c-2.686,0-5.365-1.076-7.336-3.202c-3.754-4.05-3.514-10.377,0.535-14.132l47.209-43.762
				c4.051-3.755,10.377-3.514,14.131,0.536c3.756,4.05,3.516,10.377-0.535,14.132L94.755,95.628
				C92.831,97.412,90.392,98.294,87.958,98.294z"/>
		</g>
		<g>
			<line fill="#CBDD58" x1="87.956" y1="88.294" x2="26.454" y2="69.291"/>
			<path fill="#CBDD58" d="M87.96,98.297c-0.979,0-1.973-0.145-2.955-0.448L23.503,78.846c-5.277-1.631-8.232-7.23-6.604-12.507
				c1.631-5.276,7.23-8.233,12.508-6.603l61.502,19.003c5.275,1.631,8.232,7.23,6.602,12.507
				C96.185,95.539,92.229,98.297,87.96,98.297z"/>
		</g>
		<g>
			<line fill="#CBDD58" x1="87.956" y1="88.294" x2="102.251" y2="151.058"/>
			<path fill="#CBDD58" d="M102.241,161.06c-4.564,0-8.686-3.144-9.742-7.781L78.206,90.515c-1.227-5.385,2.145-10.745,7.529-11.971
				c5.381-1.231,10.744,2.145,11.971,7.529l14.295,62.764c1.227,5.385-2.145,10.745-7.529,11.971
				C103.724,160.979,102.976,161.06,102.241,161.06z"/>
		</g>
	</g>
	<g>
		<g>
			<path fill="#48B8AC" d="M87.825,98.165c-4.574,0-8.701-3.158-9.746-7.809L63.958,27.552c-1.211-5.389,2.176-10.738,7.564-11.95
				c5.387-1.211,10.738,2.175,11.949,7.563L97.591,85.97c1.213,5.389-2.174,10.738-7.562,11.95
				C89.29,98.086,88.552,98.165,87.825,98.165z"/>
		</g>
		<g>
			<path fill="#48B8AC" d="M40.507,141.793c-2.697,0-5.385-1.084-7.355-3.223c-3.742-4.061-3.486-10.387,0.574-14.13l47.332-43.63
				c4.061-3.742,10.387-3.484,14.131,0.575c3.742,4.061,3.484,10.387-0.576,14.13l-47.33,43.63
				C45.36,140.917,42.931,141.793,40.507,141.793z"/>
		</g>
		<g>
			<path fill="#48B8AC" d="M149.286,117.339c-0.988,0-1.99-0.147-2.982-0.457L84.856,97.709c-5.271-1.645-8.213-7.252-6.566-12.524
				c1.645-5.272,7.25-8.213,12.523-6.567l61.447,19.173c5.273,1.645,8.213,7.252,6.568,12.524
				C157.493,114.595,153.544,117.339,149.286,117.339z"/>
		</g>
	</g>
	<g>
		<path fill="#423A3F" d="M199.061,122.697l1.68-2.521c2.1-2.94,4.48-3.22,7.98-1.399c3.359,1.82,8.68,4.899,15.959,4.899
			c6.16,0,9.94-2.8,9.94-7.28c0-11.619-35.42-7.279-35.42-31.779c0-14,12.319-21.42,27.3-21.42c9.52,0,16.1,3.08,19.88,5.18
			c3.22,1.68,3.64,4.62,2.101,7.84l-1.4,2.52c-1.68,3.36-4.34,3.78-7.84,2.24c-3.08-1.4-7.7-3.5-13.58-3.5c-6.16,0-9.66,2.52-9.66,7
			c0,11.759,35.42,7.14,35.42,31.5c0,12.6-10.64,21.98-27.16,21.98c-11.479,0-19.459-4.34-23.799-7.28
			C197.24,128.857,196.961,125.777,199.061,122.697z"/>
		<path fill="#423A3F" d="M290.342,121.018c-4.9-0.561-11.48-2.66-11.48-13.301v-27.72h10.5c3.64,0,5.74-1.96,5.74-5.88v-2.38
			c0-3.78-2.101-5.88-5.881-5.88h-10.359v-14.56c0-3.78-2.1-5.88-5.881-5.88h-5.6c-3.779,0-5.879,2.1-5.879,5.88v14.56l0.02,14.094
			l-0.44,30.846c0,19.32,15.12,26.18,27.86,26.18c4.9,0,7.279-1.68,7.279-5.88v-4.34
			C296.221,122.837,294.682,121.438,290.342,121.018z"/>
		<path fill="#423A3F" d="M343.212,92.178h2.939v-1.681c0-9.38-6.02-12.6-13.299-12.6c-6.021,0-11.48,2.24-14.84,4.06
			c-3.5,1.54-6.16,0.98-7.84-2.38l-1.4-2.66c-1.68-3.22-1.12-6.02,2.24-7.84c4.619-2.38,12.74-5.88,23.379-5.88
			c18.48,0,29.541,10.36,29.541,28.42v38.779c0,3.92-1.961,5.881-5.881,5.881h-4.76c-3.779,0-5.74-1.961-5.74-5.881v-2.8
			c0-1.96,0.281-3.079,0.281-3.079h-0.281c0,0-6.719,13.439-22.399,13.439c-13.021,0-23.66-8.4-23.66-21.42
			C301.492,95.678,327.253,92.178,343.212,92.178z M329.912,124.377c9.94,0,16.38-10.08,16.38-18.76v-2.66h-2.939
			c-8.961,0-24.221,1.4-24.221,12.04C319.132,119.757,322.772,124.377,329.912,124.377z"/>
		<path fill="#423A3F" d="M378.997,64.877v-2.38c0-22.68,20.02-26.18,27.439-26.18h1.961c3.779,0,5.879,1.96,5.879,5.88v3.64
			c0,3.78-2.1,5.46-6.02,5.74c-4.48,0.28-11.48,1.26-11.48,11.62v1.68h29.541v-2.38c0-22.68,20.02-26.18,27.439-26.18h1.959
			c3.781,0,5.881,1.96,5.881,5.88v3.64c0,3.78-2.1,5.46-6.02,5.74c-4.34,0.28-11.48,1.26-11.48,11.62v1.68h29.535
			c3.92,0,5.881,2.1,5.881,5.88v2.38c0,3.92-1.82,5.88-5.041,5.88h-30.375v51.379c0,3.92-1.961,5.881-5.74,5.881h-6.16
			c-3.779,0-5.879-1.961-5.879-5.881V79.017h-29.541v51.379c0,3.92-1.959,5.881-5.879,5.881h-6.021
			c-3.779,0-5.879-1.961-5.879-5.881V79.017"/>
		<path fill="#423A3F" d="M470.621,70.757c0-3.78,2.1-5.88,5.879-5.88h6.02c3.92,0,5.881,2.1,5.881,5.88v67.34
			c0,23.239-20.301,27.159-27.301,27.159H459c-3.779,0-5.74-1.961-5.74-5.881v-3.639c0-4.481,2.801-5.321,5.74-5.741
			c4.9-0.559,11.621-2.1,11.621-13.02V70.757z"/>
		<path fill="#423A3F" d="M538.862,63.197c21.699,0,39.34,15.54,39.34,37.38c0,21.979-17.641,37.38-39.34,37.38
			c-21.701,0-39.201-15.4-39.201-37.38C499.661,78.737,517.161,63.197,538.862,63.197z M538.862,122.837
			c11.619,0,21.279-8.96,21.279-22.26c0-13.16-9.66-22.26-21.279-22.26c-11.621,0-21.141,9.1-21.141,22.26
			C517.722,113.877,527.241,122.837,538.862,122.837z"/>
		<path fill="#423A3F" d="M590.577,150.717c1.26,0.561,2.939,1.262,5.041,1.262c5.18,0,9.238-4.48,11.34-9.521l2.66-6.299
			l-27.16-63.42c-1.82-4.06,0-6.86,4.479-6.86h7.561c3.5,0,5.461,1.54,6.58,4.76l13.439,36.4c1.26,3.78,2.66,9.659,2.66,9.659h0.281
			c0,0,1.26-5.6,2.379-9.379l12.6-36.54c0.98-3.36,3.08-4.9,6.58-4.9h7c4.34,0,6.16,2.66,4.76,6.72l-29.398,75.32
			c-4.9,13.021-15.26,18.759-25.76,18.759c-3.92,0-7.42-1.119-9.941-2.1c-3.359-1.26-4.199-4.34-2.66-7.559l1.262-3.081
			C585.817,150.717,588.198,150.158,590.577,150.717z"/>
	</g>
</g>
</svg>
