<?xml version="1.0" encoding="utf-8"?>
<!-- Generator: Adobe Illustrator 16.0.4, SVG Export Plug-In . SVG Version: 6.00 Build 0)  -->
<!DOCTYPE svg PUBLIC "-//W3C//DTD SVG 1.1//EN" "http://www.w3.org/Graphics/SVG/1.1/DTD/svg11.dtd">
<svg version="1.1" id="Layer_1" xmlns="http://www.w3.org/2000/svg" xmlns:xlink="http://www.w3.org/1999/xlink" x="0px" y="0px"
	 width="400px" height="400px" viewBox="0 0 400 400" enable-background="new 0 0 400 400" xml:space="preserve">
<g>
	<g id="XMLID_1_">
		<g>
			<path d="M362.5,63.5V126h-250V63.5H362.5z M352.17,111.83c1.5-12.26,3.75-24.37,1.15-36.66c-0.61-2.9-3.59-3.87-6.15-3.49
				c-12.78,1.88-25.67,2.44-38.58,2.44c-19.53,0-39.13-1.29-58.56-1.29c-6.8,0-13.17,0.32-19.7-1.82
				c-6.08-1.99-10.89-2.87-16.87-0.14c-2.95,1.35-5.46,2.45-8.64,3.22c-0.88,0.21-1.82,0.3-2.771,0.3c-2.92,0-6.06-0.81-8.73-1.27
				c-4.05-0.71-8.13-0.99-12.21-1.47c-12.26-1.46-26.86-4.65-39.21-1.05c-4-1.86-8.12-3.06-12.96-1.47
				c-11.48,3.79-9.47,15.18-10.11,24.7c-0.11,1.72,1.03,3.49,2.48,4.32c0.86,0.5,1.72,1,2.57,1.51c-0.83,3.79-1.37,7.58-1.05,11.51
				c0.29,3.5,2.96,5.34,6.33,4.82c18.74-2.87,37.56,2.34,56.3,0.6c4.67-0.44,9.12-1.59,13.47-3.09h143.3
				C343.22,118.15,351.47,117.54,352.17,111.83z"/>
			<path d="M141.9,70.6c-1.47,0.42-2.9,0.94-4.3,1.57c-2.09,0.95-3.86,2.25-5.27,3.83h-0.43c-1.34-0.9-3.05-0.78-4.5,0H125v2.4
				c-0.72,1.31-0.9,2.93-0.15,4.62c0.05,0.12,0.1,0.24,0.15,0.36v11.6c-0.11,0.46-0.22,0.93-0.34,1.39c-0.28,1.1-0.54,2.2-0.78,3.29
				c-0.85-0.51-1.71-1.01-2.57-1.51c-1.45-0.83-2.59-2.6-2.48-4.32c0.64-9.52-1.37-20.91,10.11-24.7
				C133.78,67.54,137.9,68.74,141.9,70.6z"/>
			<path d="M153.17,85.99c-3.69-0.51-7.07-2.25-10.32-3.98c-0.35-0.19-0.71-0.39-1.08-0.6c-0.23,0.01-0.46,0.03-0.7,0.05
				c3.73-2.54,11.15-2.74,17.86-2.33C160.52,82.84,157.65,86.61,153.17,85.99z"/>
			<path d="M128.8,90.96c0.23,0.14,0.47,0.28,0.7,0.43c0.89,3.29,2.44,6.24,4.58,8.61c-0.42,1.86-0.82,3.71-1.06,5.59
				c3.08-0.25,6.15-0.38,9.24-0.39c1.19,0.37,2.45,0.63,3.78,0.77c5.79,0.61,11.58,0.6,17.38,0.27c0.62,0.05,1.23,0.1,1.85,0.15
				c-0.64,2.45-2.91,4.7-6.1,4.26c-8.97-1.22-18.54-1.81-27.34,0.67c-5.75,1.62-8.23-5.91-3.89-9.1c-0.96-0.65-1.94-1.27-2.94-1.88
				v-5.36c0.94-3.9,1.59-7.74,0-11.6V78.4c0.54-1.03,1.41-1.87,2.4-2.4h4.5c0.09,0.06,0.18,0.13,0.27,0.2
				c-1.56,1.79-2.63,3.91-3.14,6.25c-0.01,0.03-0.01,0.06-0.02,0.09C128.4,85.07,128.66,88.3,128.8,90.96z"/>
			<path d="M221.23,76H202.05v-1.61c0.95,0,1.891-0.09,2.771-0.3c3.18-0.77,5.689-1.87,8.64-3.22c5.98-2.73,10.79-1.85,16.87,0.14
				c6.53,2.14,12.9,1.82,19.7,1.82c19.43,0,39.029,1.29,58.56,1.29V76H221.23z"/>
			<path d="M209.14,92.2c5.801,0.58,5.591,9.91-0.64,9.97c-2.73,0.02-5.47,0.14-8.2,0.33c1.45-0.57,2.891-1.16,4.32-1.76
				c-3.59-0.3-7.19-0.5-10.79-0.35c-9.69,0.39-19.31,1.59-28.97,2.4c-0.57-0.91-1.56-1.58-3.03-1.78c-4.2-0.57-8.46-1.05-12.73-1.25
				c-0.21-1.15-0.08-2.38,0.41-3.45c3.82,0.25,7.83-0.07,11.5-0.21c15.89-0.62,31.57-3.8,47.49-3.93
				C208.72,92.17,208.93,92.18,209.14,92.2z"/>
			<path d="M135.21,95.13c-0.36,1.64-0.75,3.26-1.13,4.87c-2.14-2.37-3.69-5.32-4.58-8.61C131.45,92.57,133.36,93.8,135.21,95.13z"
				/>
			<path d="M198.93,113.5H125v-13.16c1,0.61,1.98,1.23,2.94,1.88c-4.34,3.19-1.86,10.72,3.89,9.1c8.8-2.48,18.37-1.89,27.34-0.67
				c3.19,0.44,5.46-1.81,6.1-4.26c6.24,0.52,12.53,0.91,18.65,0.34c5.71-0.53,11.09-2.18,16.36-4.23c0.01,0,0.02,0,0.02,0
				c2.73-0.19,5.47-0.31,8.2-0.33c6.23-0.06,6.44-9.39,0.64-9.97l0.13-1.28c0.9,0.08,1.79,0.19,2.69,0.3
				c6.15,0.79,12.39,1.63,18.54,0.46c6.26-1,9.05,8.43,2.66,9.64C221.07,103.25,210.36,109.57,198.93,113.5z"/>
			<path d="M128.75,87.22c0.14,1.44,0.39,2.83,0.75,4.17c-0.23-0.15-0.47-0.29-0.7-0.43c-0.14-2.66-0.4-5.89,0.21-8.42
				C128.69,84.03,128.6,85.6,128.75,87.22z"/>
			<path d="M163.42,106.24c-5.8,0.33-11.59,0.34-17.38-0.27c-1.33-0.14-2.59-0.4-3.78-0.77c4.32-0.04,8.66,0.13,13.01,0.4
				C157.96,105.77,160.68,106.01,163.42,106.24z"/>
			<path d="M155.27,105.6c-4.35-0.27-8.69-0.44-13.01-0.4c-3.27-1-6.02-2.81-8.18-5.2c0.38-1.61,0.77-3.23,1.13-4.87
				c1.92,1.38,3.76,2.87,5.49,4.5c0.06,0.05,0.1,0.11,0.15,0.16c2.74-0.16,5.5-0.15,8.25-0.03c0.4,2.07,1.97,3.84,4.73,3.74
				c3.69-0.13,7.36-0.39,11.03-0.71c0.59,0.95,0.73,2.16,0.47,3.33c-0.64,0.04-1.28,0.08-1.91,0.12
				C160.68,106.01,157.96,105.77,155.27,105.6z"/>
			<path d="M192.06,90.46c5.77-0.23,11.49-0.13,17.209,0.46l-0.13,1.28c-0.21-0.02-0.42-0.03-0.64-0.03
				c-15.92,0.13-31.6,3.31-47.49,3.93c-3.67,0.14-7.68,0.46-11.5,0.21c0.71-1.53,2.16-2.73,4.32-2.81
				C166.62,93.03,179.28,90.97,192.06,90.46z"/>
			<path d="M132.33,76h24.2c0.54,0.49,1.04,1.04,1.51,1.63c0.38,0.49,0.68,0.99,0.89,1.5c-6.71-0.41-14.13-0.21-17.86,2.33
				c-0.19,0.01-0.38,0.02-0.57,0.04c-2.47,0.22-3.97-1.12-4.54-2.88c-0.78-0.22-1.56-0.34-2.31-0.3c-0.01,0-0.02,0-0.03,0
				c-0.04-0.11-0.09-0.23-0.14-0.34c-0.34-0.78-0.8-1.36-1.31-1.78C132.21,76.13,132.27,76.06,132.33,76z"/>
			<path d="M156.53,76h-24.2c1.41-1.58,3.18-2.88,5.27-3.83c1.4-0.63,2.83-1.15,4.3-1.57c0.54,0.25,1.09,0.52,1.63,0.79
				C148.27,71.47,153.06,72.77,156.53,76z"/>
			<path d="M193.83,100.39c3.6-0.15,7.2,0.05,10.79,0.35c-1.43,0.6-2.87,1.19-4.32,1.76c0,0-0.01,0-0.02,0
				c-11.64,0.8-23.3,2.8-34.95,3.62c0.26-1.17,0.12-2.38-0.47-3.33C174.52,101.98,184.14,100.78,193.83,100.39z"/>
			<path d="M193.32,73.12c2.67,0.46,5.81,1.27,8.73,1.27V76h-45.52c-3.47-3.23-8.26-4.53-13-4.61c-0.54-0.27-1.09-0.54-1.63-0.79
				c12.35-3.6,26.95-0.41,39.21,1.05C185.19,72.13,189.27,72.41,193.32,73.12z"/>
			<path d="M133.62,78.32c2.34,5.39,2.89,10.67,1.66,16.49c-0.02,0.11-0.05,0.21-0.07,0.32c-1.85-1.33-3.76-2.56-5.71-3.74
				c-0.36-1.34-0.61-2.73-0.75-4.17c-0.15-1.62-0.06-3.19,0.26-4.68c0.01-0.03,0.01-0.06,0.02-0.09
				C129.6,80.17,130.88,78.48,133.62,78.32z"/>
			<path d="M221.23,78.89c-2.73-0.11-5.49,2.11-7.94,3.15c-6.1,2.59-12.58,2.43-19,1.34c-7.58-1.28-15.29-2.06-22.94-2.94
				c-2.25-0.26-7.11-0.98-12.42-1.31c-0.21-0.51-0.51-1.01-0.89-1.5c-0.47-0.59-0.97-1.14-1.51-1.63h45.52h19.181V78.89z"/>
			<path d="M133.48,77.98c0.05,0.11,0.1,0.23,0.14,0.34c-2.74,0.16-4.02,1.85-4.59,4.13c0.51-2.34,1.58-4.46,3.14-6.25
				C132.68,76.62,133.14,77.2,133.48,77.98z"/>
			<path d="M142.26,105.2c-3.09,0.01-6.16,0.14-9.24,0.39c0.24-1.88,0.64-3.73,1.06-5.59C136.24,102.39,138.99,104.2,142.26,105.2z"
				/>
			<path d="M350,76v37.5h-7.77c-0.11-0.5-0.141-1.06-0.061-1.67c1.2-9.8,3.271-19.88,2.18-29.78c-6.93,0.87-13.899,1.47-20.89,1.71
				c-16.13,0.55-32.25-0.14-48.38-0.59c-8.35-0.24-16.7-0.34-25.05-0.34c-6.54,0-13.391,0.61-19.73-1.34
				c-2.859-0.88-6.04-2.47-9.069-2.6V76h87.359H350z"/>
			<path d="M138.68,86.44c0.37,3.93,2.39,8.44,6.57,9.32c1.38,0.29,2.81,0.46,4.26,0.55c-0.49,1.07-0.62,2.3-0.41,3.45
				c-2.75-0.12-5.51-0.13-8.25,0.03c-0.05-0.05-0.09-0.11-0.15-0.16c-1.73-1.63-3.57-3.12-5.49-4.5c0.02-0.11,0.05-0.21,0.07-0.32
				c1.23-5.82,0.68-11.1-1.66-16.49c0.01,0,0.02,0,0.03,0c0.75-0.04,1.53,0.08,2.31,0.3c0.57,1.76,2.07,3.1,4.54,2.88
				c0.19-0.02,0.38-0.03,0.57-0.04C139.4,82.6,138.47,84.21,138.68,86.44z"/>
			<path d="M132.33,76c-0.06,0.06-0.12,0.13-0.16,0.2c-0.09-0.07-0.18-0.14-0.27-0.2H132.33z"/>
			<path d="M165.33,106.12c-0.01,0.09-0.03,0.18-0.06,0.27c-0.62-0.05-1.23-0.1-1.85-0.15C164.05,106.2,164.69,106.16,165.33,106.12
				z"/>
			<path d="M352.17,111.83c-0.7,5.71-8.95,6.32-9.939,1.67H350V76h-41.41v-1.88c12.91,0,25.8-0.56,38.58-2.44
				c2.561-0.38,5.54,0.59,6.15,3.49C355.92,87.46,353.67,99.57,352.17,111.83z"/>
			<path d="M161.83,101.01c1.47,0.2,2.46,0.87,3.03,1.78c-3.67,0.32-7.34,0.58-11.03,0.71c-2.76,0.1-4.33-1.67-4.73-3.74
				C153.37,99.96,157.63,100.44,161.83,101.01z"/>
			<path d="M125,83.38c1.59,3.86,0.94,7.7,0,11.6V83.38z"/>
			<path d="M185.46,116.59c-18.74,1.74-37.56-3.47-56.3-0.6c-3.37,0.52-6.04-1.32-6.33-4.82c-0.32-3.93,0.22-7.72,1.05-11.51
				c0.38,0.22,0.75,0.45,1.12,0.68v13.16h73.93C194.58,115,190.13,116.15,185.46,116.59z"/>
			<path d="M125,94.98v5.36c-0.37-0.23-0.74-0.46-1.12-0.68c0.24-1.09,0.5-2.19,0.78-3.29C124.78,95.91,124.89,95.44,125,94.98z"/>
			<path d="M125,76h2.4c-0.99,0.53-1.86,1.37-2.4,2.4V76z"/>
			<path d="M131.9,76h-4.5C128.85,75.22,130.56,75.1,131.9,76z"/>
			<path d="M125,78.4v4.98c-0.05-0.12-0.1-0.24-0.15-0.36C124.1,81.33,124.28,79.71,125,78.4z"/>
			<path d="M362.5,213.5V276h-225v-62.5H362.5z M350,263.5V226H150v37.5H350z"/>
			<path d="M287.5,138.5V201h-250v-62.5H287.5z M275,188.5V151H50v37.5H275z"/>
			<path d="M262.5,288.5V351h-175v-62.5H262.5z M250,338.5V301H100v37.5H250z"/>
		</g>
		<g>
		</g>
	</g>
</g>
<rect x="118.826" y="68.947" stroke="#000000" stroke-miterlimit="10" width="243.674" height="52.22"/>
<rect x="354.508" y="68.391" stroke="#000000" stroke-miterlimit="10" width="7.992" height="0.557"/>
<rect x="44.5" y="143.833" stroke="#000000" stroke-miterlimit="10" width="236" height="48"/>
<rect x="145.833" y="223.167" stroke="#000000" stroke-miterlimit="10" width="208.674" height="40.333"/>
<rect x="97.167" y="295.5" stroke="#000000" stroke-miterlimit="10" width="157.333" height="51.334"/>
</svg>
