<?xml version="1.0" encoding="utf-8"?>
<!-- Generator: Adobe Illustrator 16.0.4, SVG Export Plug-In . SVG Version: 6.00 Build 0)  -->
<!DOCTYPE svg PUBLIC "-//W3C//DTD SVG 1.1//EN" "http://www.w3.org/Graphics/SVG/1.1/DTD/svg11.dtd">
<svg version="1.1" xmlns="http://www.w3.org/2000/svg" xmlns:xlink="http://www.w3.org/1999/xlink" x="0px" y="0px" width="550px"
	 height="550px" viewBox="0 0 550 550" enable-background="new 0 0 550 550" xml:space="preserve">
<g id="Layer_1">
	<g>
		<g>
			<path fill="#423A3F" d="M76.81,441.087l1.551-2.327c1.937-2.712,4.134-2.971,7.363-1.289c3.101,1.678,8.009,4.52,14.728,4.52
				c5.683,0,9.171-2.584,9.171-6.717c0-10.723-32.683-6.718-32.683-29.326c0-12.92,11.368-19.765,25.19-19.765
				c8.784,0,14.856,2.842,18.345,4.78c2.971,1.549,3.358,4.263,1.939,7.233l-1.293,2.327c-1.55,3.101-4.003,3.488-7.234,2.064
				c-2.842-1.289-7.105-3.229-12.531-3.229c-5.684,0-8.913,2.326-8.913,6.46c0,10.852,32.683,6.589,32.683,29.068
				c0,11.626-9.816,20.282-25.062,20.282c-10.593,0-17.957-4.003-21.96-6.717C75.131,446.771,74.873,443.928,76.81,441.087z"/>
			<path fill="#423A3F" d="M158.631,439.536c-4.522-0.517-10.594-2.455-10.594-12.274v-26.754h9.587
				c3.359,0,5.399-1.556,5.399-5.173v-2.197c0-3.487-1.997-5.548-5.483-5.548h-9.503V375.2c0-3.487-1.938-5.424-5.426-5.424h-5.167
				c-3.488,0-5.426,1.937-5.426,5.424l-0.389,54.906c0,17.828,13.954,24.158,25.708,24.158c4.523,0,6.719-1.55,6.719-5.426v-4.004
				C164.056,441.217,162.634,439.923,158.631,439.536z"/>
			<path fill="#423A3F" d="M205.231,412.924h2.711v-1.55c0-8.656-5.555-11.629-12.272-11.629c-5.555,0-10.593,2.069-13.694,3.748
				c-3.229,1.422-5.683,0.905-7.234-2.194l-1.293-2.457c-1.549-2.97-1.032-5.554,2.067-7.232c4.263-2.197,11.758-5.426,21.574-5.426
				c17.054,0,27.259,9.558,27.259,26.224v35.783c0,3.619-1.809,5.428-5.425,5.428h-4.394c-3.486,0-5.296-1.809-5.296-5.428v-2.583
				c0-1.807,0.259,0.855,0.259,0.855h-0.259c0,0-6.199,8.706-20.669,8.706c-12.015,0-21.833-7.752-21.833-19.765
				C166.733,416.152,190.504,412.924,205.231,412.924z M192.957,442.635c9.174,0,15.116-9.3,15.116-17.31v-2.454h-2.713
				c-8.269,0-22.351,1.293-22.351,11.11C183.009,438.373,186.37,442.635,192.957,442.635z"/>
			<path fill="#423A3F" d="M235.825,387.732v-2.197c0-20.929,18.473-24.158,25.32-24.158h1.809c3.488,0,5.425,1.809,5.425,5.427
				v3.358c0,3.487-1.937,5.037-5.555,5.295c-4.134,0.26-10.593,1.165-10.593,10.724v1.55h27.259v-2.197
				c0-20.929,18.473-24.158,25.32-24.158h1.807c3.489,0,5.428,1.809,5.428,5.427v3.358c0,3.487-1.938,5.037-5.556,5.295
				c-4.003,0.26-10.593,1.165-10.593,10.724v1.55h31.864c0,0,0.817,1.936,0.817,5.427l-0.078,2.504c0,3.619-1.603,5.116-4.575,5.116
				h-28.029v47.41c0,3.619-1.81,5.428-5.296,5.428h-5.685c-3.488,0-5.425-1.809-5.425-5.428v-47.41h-27.259v47.41
				c0,3.619-1.808,5.428-5.425,5.428h-5.557c-3.487,0-5.424-1.809-5.424-5.428v-47.41"/>
			<path fill="#423A3F" d="M318.627,393.169c0-3.489,1.936-5.426,5.425-5.426h5.554c3.618,0,5.428,1.938,5.428,5.426v62.138
				c0,21.446-18.733,25.063-25.192,25.063h-1.938c-3.486,0-5.296-1.809-5.296-5.427v-3.359c0-4.134,2.584-4.911,5.296-5.298
				c4.522-0.515,10.724-1.936,10.724-12.013V393.169z"/>
			<path fill="#423A3F" d="M378.591,386.971c20.023,0,36.303,14.339,36.303,34.491c0,20.283-16.279,34.494-36.303,34.494
				c-20.024,0-36.173-14.211-36.173-34.494C342.418,401.31,358.567,386.971,378.591,386.971z M378.591,442.004
				c10.721,0,19.637-8.269,19.637-20.542c0-12.142-8.916-20.541-19.637-20.541c-10.723,0-19.507,8.399-19.507,20.541
				C359.083,433.735,367.868,442.004,378.591,442.004z"/>
			<path fill="#423A3F" d="M471.006,387.59h-6.459c-3.229,0-5.168,1.285-6.072,4.386l-11.628,33.87
				c-1.034,3.486-2.193,8.806-2.193,8.806h-0.26c0,0-1.293-5.646-2.456-9.133l-12.403-33.562c-1.031-2.971-2.841-4.366-6.071-4.366
				h-6.977c-4.133,0-5.813,2.447-4.133,6.194l25.063,58.454l0.019-0.031c-3.169,12.202-8.248,12.648-12.375,13.164
				c-2.71,0.417-5.285,1.212-5.24,5.346l0.034,3.353c0.039,3.616,1.802,6.048,5.289,6.01l1.938-0.022
				c6.052-0.064,15.826,1.126,25.354-25.811l0,0l22.96-60.592C476.689,389.908,475.011,387.59,471.006,387.59z"/>
			<circle fill="#423A3F" cx="326.973" cy="368.39" r="9.317"/>
			<g>
				<path fill="#423A3F" d="M238.423,400.743h-3.097c-3.615,0-5.422-1.808-5.422-5.424v-2.192c0-3.488,1.808-5.424,5.422-5.424
					h3.097"/>
			</g>
		</g>
		<g>
			<g>
				<g>
					<line fill="#CADC58" x1="394.168" y1="134.693" x2="324.172" y2="199.577"/>
					<path fill="#CADC58" d="M324.177,214.403c-3.984,0-7.956-1.596-10.878-4.748c-5.566-6.005-5.211-15.386,0.792-20.951
						l69.995-64.886c6.007-5.565,15.387-5.208,20.954,0.796c5.567,6.005,5.211,15.387-0.793,20.952l-69.995,64.885
						C331.4,213.096,327.784,214.403,324.177,214.403z"/>
				</g>
				<g>
					<line fill="#CADC58" x1="324.172" y1="199.577" x2="232.986" y2="171.402"/>
					<path fill="#CADC58" d="M324.178,214.407c-1.451,0-2.923-0.212-4.381-0.664l-91.187-28.174
						c-7.825-2.419-12.209-10.722-9.79-18.544c2.416-7.824,10.719-12.208,18.542-9.792l91.188,28.177
						c7.823,2.418,12.208,10.721,9.789,18.544C336.373,210.319,330.509,214.407,324.178,214.407z"/>
				</g>
				<g>
					<line fill="#CADC58" x1="324.172" y1="199.577" x2="345.368" y2="292.636"/>
					<path fill="#CADC58" d="M345.353,307.464c-6.768,0-12.877-4.661-14.446-11.536l-21.19-93.058
						c-1.819-7.984,3.181-15.933,11.164-17.749c7.978-1.826,15.93,3.181,17.75,11.163l21.193,93.059
						c1.819,7.983-3.179,15.933-11.163,17.749C347.552,307.345,346.442,307.464,345.353,307.464z"/>
				</g>
			</g>
			<g>
				<g>
					<path fill="#48B7AB" d="M323.979,214.213c-6.783,0-12.901-4.684-14.451-11.578l-20.937-93.12
						c-1.796-7.989,3.225-15.921,11.216-17.718c7.985-1.797,15.92,3.225,17.715,11.214l20.936,93.12
						c1.798,7.989-3.224,15.919-11.213,17.717C326.15,214.095,325.057,214.213,323.979,214.213z"/>
				</g>
				<g>
					<path fill="#48B7AB" d="M253.82,278.899c-3.999,0-7.982-1.605-10.906-4.778c-5.547-6.019-5.169-15.4,0.851-20.95l70.179-64.689
						c6.021-5.549,15.4-5.166,20.95,0.853c5.548,6.021,5.168,15.402-0.853,20.95l-70.175,64.691
						C261.018,277.601,257.415,278.899,253.82,278.899z"/>
				</g>
				<g>
					<path fill="#48B7AB" d="M415.104,242.641c-1.464,0-2.95-0.219-4.421-0.677l-91.106-28.427
						c-7.816-2.44-12.178-10.753-9.735-18.569c2.437-7.817,10.748-12.176,18.568-9.738l91.105,28.428
						c7.82,2.437,12.178,10.753,9.741,18.57C427.273,238.572,421.416,242.641,415.104,242.641z"/>
				</g>
			</g>
		</g>
	</g>
</g>
<g id="Layer_2">
</g>
</svg>
